<?xml version="1.0" encoding="UTF-8" standalone="no"?>
<svg
   xmlns:dc="http://purl.org/dc/elements/1.1/"
   xmlns:cc="http://creativecommons.org/ns#"
   xmlns:rdf="http://www.w3.org/1999/02/22-rdf-syntax-ns#"
   xmlns:svg="http://www.w3.org/2000/svg"
   xmlns="http://www.w3.org/2000/svg"
   xmlns:sodipodi="http://sodipodi.sourceforge.net/DTD/sodipodi-0.dtd"
   xmlns:inkscape="http://www.inkscape.org/namespaces/inkscape"
   sodipodi:docname="doubleJ.svg"
   inkscape:version="1.0beta2 (2b71d25, 2019-12-03)"
   id="svg8"
   version="1.1"
   viewBox="0 0 21 37"
   height="37mm"
   width="21mm">
  <defs
     id="defs2">
    <rect
       id="rect12"
       height="102.43224"
       width="82.898643"
       y="74.799355"
       x="54.312908" />
  </defs>
  <sodipodi:namedview
     inkscape:window-maximized="0"
     inkscape:window-y="23"
     inkscape:window-x="49"
     inkscape:window-height="1286"
     inkscape:window-width="2490"
     showgrid="false"
     inkscape:document-rotation="0"
     inkscape:current-layer="layer1"
     inkscape:document-units="mm"
     inkscape:cy="75.965592"
     inkscape:cx="46.235539"
     inkscape:zoom="8.290315"
     inkscape:pageshadow="2"
     inkscape:pageopacity="0.0"
     borderopacity="1.0"
     bordercolor="#666666"
     pagecolor="#ffffff"
     id="base" />
  <metadata
     id="metadata5">
    <rdf:RDF>
      <cc:Work
         rdf:about="">
        <dc:format>image/svg+xml</dc:format>
        <dc:type
           rdf:resource="http://purl.org/dc/dcmitype/StillImage" />
        <dc:title></dc:title>
      </cc:Work>
    </rdf:RDF>
  </metadata>
  <g
     id="layer1"
     inkscape:groupmode="layer"
     inkscape:label="Layer 1">
    <g
       transform="translate(-1.0531868,-0.60638026)"
       style="font-style:normal;font-weight:normal;font-size:10.5833px;line-height:1.25;font-family:sans-serif;fill:none;fill-opacity:1;stroke:#000000;stroke-width:0.264583;stroke-opacity:1"
       id="text18"
       aria-label="J">
      <path
         inkscape:connector-curvature="0"
         id="path20"
         style="font-style:normal;font-variant:normal;font-weight:normal;font-stretch:normal;font-size:50.8px;font-family:serif;-inkscape-font-specification:serif;fill:none;stroke:#000000;stroke-width:0.264583;stroke-opacity:1"
         d="M 5.536578,2.5383626 V 1.6205892 H 19.948101 V 2.5383626 H 18.732672 Q 16.673882,2.5383626 15.731304,3.7537923 15.135992,4.5475423 15.135992,7.5737141 V 24.019222 Q 15.135992,27.814339 14.292633,30.170784 13.474078,32.527229 11.440094,34.288362 9.4061092,36.02469 6.5287655,36.02469 4.1971249,36.02469 2.8576718,34.883675 1.5182187,33.717854 1.5182187,32.229573 1.5182187,31.014143 2.1383358,30.394026 2.9568905,29.625081 4.0482967,29.625081 4.8420467,29.625081 5.4621639,30.145979 6.1070858,30.666878 7.0744686,32.924104 7.6449764,34.263557 8.5379451,34.263557 9.2076717,34.263557 9.7781795,33.445003 10.373492,32.626448 10.373492,30.542854 V 7.5737141 Q 10.373492,5.0188313 10.051031,4.2002767 9.8029842,3.5801595 9.0092342,3.1336751 7.9426326,2.5383626 6.7520076,2.5383626 Z" />
      <path
         inkscape:connector-curvature="0"
         d="M 7.0365713,3.2724019 V 2.3546285 H 21.448094 V 3.2724019 H 20.232665 Q 18.173875,3.2724019 17.231297,4.4878316 16.635985,5.2815816 16.635985,8.3077534 V 24.753262 Q 16.635985,28.548379 15.792626,30.904824 14.974071,33.261269 12.940087,35.022402 10.906102,36.75873 8.0287588,36.75873 5.6971182,36.75873 4.3576651,35.617715 3.018212,34.451894 3.018212,32.963613 3.018212,31.748183 3.6383291,31.128066 4.4568838,30.359121 5.54829,30.359121 6.34204,30.359121 6.9621572,30.880019 7.6070791,31.400918 8.5744619,33.658144 9.1449697,34.997597 10.037938,34.997597 10.707665,34.997597 11.278173,34.179043 11.873485,33.360488 11.873485,31.276894 V 8.3077534 Q 11.873485,5.7528706 11.551024,4.934316 11.302977,4.3141988 10.509228,3.8677144 9.4426259,3.2724019 8.2520009,3.2724019 Z"
         style="font-style:normal;font-variant:normal;font-weight:normal;font-stretch:normal;font-size:50.8px;font-family:serif;-inkscape-font-specification:serif;fill:none;stroke:#000000;stroke-width:0.264583;stroke-opacity:1"
         id="path864" />
    </g>
  </g>
</svg>
