<?xml version="1.0" encoding="UTF-8" standalone="no"?>
<svg
   xmlns:osb="http://www.openswatchbook.org/uri/2009/osb"
   xmlns:dc="http://purl.org/dc/elements/1.1/"
   xmlns:cc="http://creativecommons.org/ns#"
   xmlns:rdf="http://www.w3.org/1999/02/22-rdf-syntax-ns#"
   xmlns:svg="http://www.w3.org/2000/svg"
   xmlns="http://www.w3.org/2000/svg"
   id="svg8"
   version="1.1"
   viewBox="0 0 210 117"
   height="117mm"
   width="210mm">
  <defs
     id="defs2">
    <linearGradient
       osb:paint="solid"
       id="linearGradient852">
      <stop
         id="stop850"
         offset="0"
         style="stop-color:#000000;stop-opacity:1;" />
    </linearGradient>
    <rect
       id="rect835"
       height="83.154762"
       width="117.17262"
       y="91.470238"
       x="29.482143" />
  </defs>
  <metadata
     id="metadata5">
    <rdf:RDF>
      <cc:Work
         rdf:about="">
        <dc:format>image/svg+xml</dc:format>
        <dc:type
           rdf:resource="http://purl.org/dc/dcmitype/StillImage" />
        <dc:title></dc:title>
      </cc:Work>
    </rdf:RDF>
  </metadata>
  <g
     id="layer1">
    <g
       style="font-style:normal;font-weight:normal;font-size:10.5833px;line-height:1.25;font-family:sans-serif;white-space:pre;shape-inside:url(#rect835);fill:none;fill-opacity:1;stroke:#000000;stroke-width:0.131561;stroke-miterlimit:4;stroke-dasharray:none;stroke-opacity:1"
       id="text833"
       transform="matrix(7.7880896,0,0,12.983115,-228.9466,-1206.1666)"
       aria-label="icobx">
      <path
         id="path839"
         style="font-style:normal;font-variant:normal;font-weight:normal;font-stretch:normal;font-family:Clip;-inkscape-font-specification:Clip;fill:none;stroke:#000000;stroke-width:0.131561;stroke-miterlimit:4;stroke-dasharray:none;stroke-opacity:1"
         d="M 30.732988,93.36956 H 30.857011 Q 31.347935,93.36956 31.575311,93.97934 31.590814,94.036184 31.590814,94.103363 V 94.196381 Q 31.590814,94.335907 31.384109,94.366912 31.213577,94.366912 31.182571,94.010346 31.03271,93.74163 30.794999,93.74163 30.4436,93.74163 30.371254,94.180878 30.371254,94.542612 30.888016,94.599456 30.981034,94.671802 30.981034,94.754484 V 94.800993 Q 30.981034,94.945687 30.779496,94.976692 30.262734,94.976692 30.03019,94.397918 29.999185,94.335907 29.999185,94.227386 V 94.103363 Q 29.999185,93.607271 30.608965,93.385063 30.665808,93.36956 30.732988,93.36956 Z M 31.275588,95.488287 Q 31.477126,95.519293 31.477126,95.658819 V 100.63008 Q 31.384109,101.28636 30.841508,101.28636 H 30.732988 Q 30.324745,101.28636 30.154213,100.82128 30.107705,100.7386 30.107705,100.44404 V 98.216794 Q 30.107705,97.953245 30.293739,97.953245 30.500444,97.979084 30.500444,98.123777 V 100.52156 Q 30.500444,100.9143 30.794999,100.9143 31.089554,100.87812 31.089554,100.63008 V 95.751836 Q 31.089554,95.488287 31.275588,95.488287 Z" />
      <path
         id="path841"
         style="font-style:normal;font-variant:normal;font-weight:normal;font-stretch:normal;font-family:Clip;-inkscape-font-specification:Clip;fill:none;stroke:#000000;stroke-width:0.131561;stroke-miterlimit:4;stroke-dasharray:none;stroke-opacity:1"
         d="M 35.352846,95.731166 H 35.62673 Q 36.164163,95.731166 36.634417,95.948206 36.851458,96.134241 36.851458,96.351281 V 96.423628 Q 36.851458,96.769859 36.43288,96.924888 36.355366,96.940391 36.319192,96.940391 35.848938,96.826703 35.466534,96.826703 H 35.451031 Q 34.283147,96.826703 33.978257,97.83439 33.921413,98.061766 33.880072,98.630205 33.787055,98.718054 33.719876,98.718054 33.590685,98.718054 33.533841,98.542355 33.533841,97.11609 34.557031,96.640668 34.970442,96.464969 35.435528,96.464969 H 35.451031 Q 35.869609,96.464969 36.360533,96.578657 36.505227,96.490807 36.505227,96.392622 36.505227,96.180749 35.941955,96.118738 35.755921,96.0929 35.466534,96.077397 34.205633,96.077397 33.389148,97.141928 32.97057,97.787881 32.97057,98.583696 32.97057,100.26834 34.427841,100.83678 34.944603,100.96597 35.32184,100.96597 35.967794,100.96597 36.73777,100.67658 H 36.748105 Q 36.866961,100.67658 36.908302,100.83678 V 100.87812 Q 36.908302,101.15201 35.538881,101.3122 H 35.177147 Q 33.849067,101.3122 33.073923,100.23217 32.624339,99.529372 32.624339,98.728389 V 98.454505 Q 32.624339,97.126425 33.792223,96.247929 34.536361,95.731166 35.352846,95.731166 Z" />
      <path
         id="path843"
         style="font-style:normal;font-variant:normal;font-weight:normal;font-stretch:normal;font-family:Clip;-inkscape-font-specification:Clip;fill:none;stroke:#000000;stroke-width:0.131561;stroke-miterlimit:4;stroke-dasharray:none;stroke-opacity:1"
         d="M 40.592819,95.607143 H 40.753016 Q 42.003582,95.607143 42.758055,96.713015 43.223141,97.560506 43.223141,98.309812 V 98.495846 Q 43.223141,99.493198 42.587523,100.35619 41.838217,101.22952 40.608322,101.22952 H 40.334438 Q 39.388762,101.22952 38.561942,100.34586 38.205376,99.844597 38.127861,99.560377 V 99.472528 Q 38.189873,99.353672 38.28289,99.353672 H 38.313896 Q 38.448254,99.353672 38.577445,99.705071 38.685965,99.984123 39.171722,100.42854 39.781502,100.88329 40.422288,100.88329 42.075928,100.88329 42.628864,99.601718 42.87691,98.909256 42.87691,98.413164 42.87691,97.508829 42.292969,96.682009 41.672853,95.968877 40.742681,95.968877 H 40.639328 Q 40.623825,95.968877 40.623825,95.953374 L 40.592819,95.968877 H 40.582484 Q 39.486947,95.968877 38.794485,96.8112 38.28289,97.560506 38.28289,98.413164 38.28289,98.743892 38.592948,98.743892 38.851329,98.707719 38.851329,98.495846 38.866832,98.046263 39.083872,97.379639 39.554126,96.28927 40.592819,96.28927 41.734865,96.28927 42.148275,97.539835 42.292969,98.041095 42.292969,98.423499 42.241292,98.583696 42.106934,98.583696 41.915732,98.583696 41.915732,98.190956 41.838217,97.565673 41.595339,97.178101 41.233605,96.651003 40.608322,96.651003 H 40.582484 Q 39.641976,96.651003 39.316416,97.813719 39.244069,98.196124 39.202728,98.656043 39.011526,99.110794 38.577445,99.110794 38.127861,99.110794 37.967665,98.656043 37.936659,98.594031 37.936659,98.470008 V 98.325315 Q 37.936659,97.410645 38.515433,96.578657 39.326751,95.607143 40.592819,95.607143 Z" />
      <path
         id="path845"
         style="font-style:normal;font-variant:normal;font-weight:normal;font-stretch:normal;font-family:Clip;-inkscape-font-specification:Clip;fill:none;stroke:#000000;stroke-width:0.131561;stroke-miterlimit:4;stroke-dasharray:none;stroke-opacity:1"
         d="M 44.396192,93.343722 H 44.484042 Q 44.628736,93.343722 44.649406,93.555595 V 94.692473 Q 44.649406,96.826703 44.633903,100.69209 44.623568,100.72309 44.623568,100.7386 44.664909,100.97631 44.861279,100.97631 45.057649,100.95564 45.057649,100.80061 44.995637,99.048782 44.995637,98.790401 V 98.433835 Q 44.995637,96.542483 45.832793,96.067062 46.406399,95.663987 47.135035,95.663987 H 47.25389 Q 48.664652,95.663987 49.351946,97.178101 49.574154,97.824055 49.574154,98.387326 V 98.656043 Q 49.574154,99.947949 48.571635,100.93497 47.832664,101.4569 47.16604,101.4569 H 46.912827 Q 46.272041,101.4569 45.682931,101.03832 45.610585,100.96597 45.610585,100.87295 45.657093,100.70759 45.775949,100.70759 H 45.81729 Q 45.853463,100.70759 46.163521,100.90396 46.561428,101.08483 46.92833,101.08483 H 46.985173 Q 47.021347,101.08483 47.047185,101.09516 47.073023,101.08483 47.104029,101.08483 H 47.16604 Q 47.905011,101.08483 48.556132,100.42337 49.202085,99.601718 49.202085,98.64054 V 98.55269 Q 49.202085,98.521684 49.217588,98.495846 49.202085,98.46484 49.202085,98.433835 V 98.35632 Q 49.202085,97.193604 48.380433,96.428795 47.858502,96.041223 47.284896,96.041223 H 47.119532 Q 46.31855,96.041223 45.775949,96.609662 45.367706,97.105755 45.367706,98.433835 V 98.821407 Q 45.367706,99.07462 45.429718,100.82645 45.429718,101.15717 45.026643,101.32254 L 44.845776,101.35354 Q 44.442701,101.35354 44.277337,100.90396 44.277337,100.86779 44.261834,100.84195 44.277337,97.798217 44.277337,95.994715 V 93.509086 Q 44.277337,93.410901 44.396192,93.343722 Z" />
      <path
         id="path847"
         style="font-style:normal;font-variant:normal;font-weight:normal;font-stretch:normal;font-family:Clip;-inkscape-font-specification:Clip;fill:none;stroke:#000000;stroke-width:0.131561;stroke-miterlimit:4;stroke-dasharray:none;stroke-opacity:1"
         d="M 50.757541,95.632981 H 50.819553 Q 50.917738,95.632981 51.072767,95.901698 52.431853,97.844725 52.540373,98.041095 52.597217,98.22713 52.597217,98.35632 52.597217,98.702551 52.13213,99.281325 51.424165,100.29418 51.279472,100.54223 V 100.63008 Q 51.341483,100.83678 51.491344,100.83678 51.723888,100.83678 51.894419,100.36136 52.638558,98.904089 54.126834,95.870692 54.364545,95.632981 54.545412,95.632981 H 54.664267 Q 55.067342,95.632981 55.217203,96.123906 55.232706,96.206588 55.232706,96.258264 55.232706,96.485639 54.736614,97.095419 54.116499,97.994586 54.033817,98.128945 53.976973,98.242632 53.976973,98.387326 53.976973,98.526852 54.602256,99.389846 55.651284,100.95564 55.651284,100.97631 V 101.04865 Q 55.651284,101.16751 55.48592,101.19852 H 55.454914 Q 55.320556,101.19852 55.020834,100.67658 53.646245,98.681881 53.646245,98.609534 53.599736,98.490679 53.599736,98.35632 53.599736,97.963581 54.199181,97.245281 54.199181,97.22461 54.860637,96.28927 V 96.242761 Q 54.824464,95.989547 54.617759,95.989547 54.426556,95.989547 54.24569,96.485639 52.586881,99.834262 52.013275,100.9453 51.796234,101.19852 51.579194,101.19852 H 51.460339 Q 51.077934,101.19852 50.907403,100.70242 V 100.56806 Q 50.907403,100.33552 51.372489,99.730909 52.225147,98.547522 52.225147,98.413164 V 98.340817 Q 52.225147,98.144448 51.641206,97.379639 50.60768,95.875859 50.60768,95.855189 V 95.782842 Q 50.638686,95.632981 50.757541,95.632981 Z" />
    </g>
  </g>
</svg>
