<svg id="Layer_1" data-name="Layer 1" xmlns="http://www.w3.org/2000/svg" viewBox="0 0 202.83 55.35" style=""><defs><style>.cls-1{fill:none;stroke:#231f20;stroke-miterlimit:10;stroke-width:2px;}</style></defs><title>jakub</title><path class="cls-1 tFYSCvAn_0" d="M2.66,44.06A14.73,14.73,0,0,0,6.3,45.75a17,17,0,0,0,5.51.83,10.24,10.24,0,0,0,5.29-1.19,7.52,7.52,0,0,0,3-3.53A18.31,18.31,0,0,0,21.49,36q.33-3.49.33-8.1v-26H30v26a90.29,90.29,0,0,1-.57,10.62,22.3,22.3,0,0,1-2.45,8.17A12.87,12.87,0,0,1,21.46,52a21,21,0,0,1-9.65,1.87A19,19,0,0,1,.72,50.68Z" transform="translate(0.44 0.5)"></path><path class="cls-1 tFYSCvAn_1" d="M49.39,53.78a14,14,0,0,1-5.07-.9,12.42,12.42,0,0,1-4-2.48,11.79,11.79,0,0,1-2.66-3.75,11.24,11.24,0,0,1-1-4.68,10.06,10.06,0,0,1,1.15-4.82,11.32,11.32,0,0,1,3.28-3.75,15.77,15.77,0,0,1,5-2.44,22.44,22.44,0,0,1,6.44-.87,29.82,29.82,0,0,1,5.26.47,26.5,26.5,0,0,1,4.68,1.26V29.23a8.75,8.75,0,0,0-2.38-6.52q-2.37-2.34-6.84-2.34a16.34,16.34,0,0,0-5.94,1.12,29.91,29.91,0,0,0-6,3.2l-2.45-5A26.73,26.73,0,0,1,54,14.76q7.77,0,12.1,4t4.32,11.37V43.7c0,1.68.69,2.54,2.08,2.59v6.77c-.76.14-1.42.24-2,.29s-1.09.07-1.62.07a5.08,5.08,0,0,1-3.56-1.15,4.92,4.92,0,0,1-1.55-3l-.21-2.38A16.84,16.84,0,0,1,57.35,52,18.38,18.38,0,0,1,49.39,53.78ZM51.55,48A14.21,14.21,0,0,0,57,46.9,9.3,9.3,0,0,0,61,44a3.67,3.67,0,0,0,1.52-2.74v-5a25.07,25.07,0,0,0-4.29-1.22,23.47,23.47,0,0,0-4.43-.43,12.12,12.12,0,0,0-6.94,1.83,5.64,5.64,0,0,0-2.7,4.86A6.13,6.13,0,0,0,46.22,46,7.62,7.62,0,0,0,51.55,48Z" transform="translate(0.44 0.5)"></path><path class="cls-1 tFYSCvAn_2" d="M106.2,53.06l-12-17.35-6.27,5.9V53.06H80V.5h7.92V33.84l17.28-18.36h8.64L99.22,31.24l15.4,21.82Z" transform="translate(0.44 0.5)"></path><path class="cls-1 tFYSCvAn_3" d="M131,53.78q-5.91,0-8.93-3.85t-3-11.49v-23H127V36.86Q127,47,134.21,47a11.06,11.06,0,0,0,6.41-2.09,13.43,13.43,0,0,0,4.68-6V15.4h7.92V43.7a3.12,3.12,0,0,0,.46,1.94,2.28,2.28,0,0,0,1.7.65v6.77c-.82.14-1.49.24-2,.29s-1,.07-1.51.07a5.75,5.75,0,0,1-3.67-1.19,3.92,3.92,0,0,1-1.59-3.06l-.14-3.74a16.93,16.93,0,0,1-6.55,6.23A18.81,18.81,0,0,1,131,53.78Z" transform="translate(0.44 0.5)"></path><path class="cls-1 tFYSCvAn_4" d="M183.6,53.78a15.18,15.18,0,0,1-13.32-7.56v6.84h-7V.5h7.92v22a17.46,17.46,0,0,1,5.58-5.69,15.65,15.65,0,0,1,14.73-.46,16.77,16.77,0,0,1,5.29,4.32A19.66,19.66,0,0,1,200.19,27a23.2,23.2,0,0,1,1.19,7.45A20.75,20.75,0,0,1,200,42a20,20,0,0,1-3.75,6.16,17.36,17.36,0,0,1-5.65,4.14A16.56,16.56,0,0,1,183.6,53.78ZM181.51,47a10.84,10.84,0,0,0,4.75-1A11.91,11.91,0,0,0,190,43.2a12.76,12.76,0,0,0,2.41-4,13.26,13.26,0,0,0,.87-4.79,14.51,14.51,0,0,0-.83-4.86,13,13,0,0,0-2.31-4.1,11.45,11.45,0,0,0-3.52-2.85,9.52,9.52,0,0,0-4.5-1.08,9.91,9.91,0,0,0-6.52,2.38,15.74,15.74,0,0,0-4.36,5.76V39.6a7.81,7.81,0,0,0,1.52,3,12.21,12.21,0,0,0,2.52,2.34,11.49,11.49,0,0,0,3.09,1.55A10.24,10.24,0,0,0,181.51,47Z" transform="translate(0.44 0.5)"></path><style data-made-with="vivus-instant">.tFYSCvAn_0{stroke-dasharray:150 152;stroke-dashoffset:151;animation:tFYSCvAn_draw_0 8300ms linear 0ms infinite,tFYSCvAn_fade 8300ms linear 0ms infinite;}.tFYSCvAn_1{stroke-dasharray:235 237;stroke-dashoffset:236;animation:tFYSCvAn_draw_1 8300ms linear 0ms infinite,tFYSCvAn_fade 8300ms linear 0ms infinite;}.tFYSCvAn_2{stroke-dasharray:234 236;stroke-dashoffset:235;animation:tFYSCvAn_draw_2 8300ms linear 0ms infinite,tFYSCvAn_fade 8300ms linear 0ms infinite;}.tFYSCvAn_3{stroke-dasharray:207 209;stroke-dashoffset:208;animation:tFYSCvAn_draw_3 8300ms linear 0ms infinite,tFYSCvAn_fade 8300ms linear 0ms infinite;}.tFYSCvAn_4{stroke-dasharray:263 265;stroke-dashoffset:264;animation:tFYSCvAn_draw_4 8300ms linear 0ms infinite,tFYSCvAn_fade 8300ms linear 0ms infinite;}@keyframes tFYSCvAn_draw{100%{stroke-dashoffset:0;}}@keyframes tFYSCvAn_fade{0%{stroke-opacity:1;}95.18072289156626%{stroke-opacity:1;}100%{stroke-opacity:0;}}@keyframes tFYSCvAn_draw_0{9.63855421686747%{stroke-dashoffset: 151}42.57028112449799%{ stroke-dashoffset: 0;}100%{ stroke-dashoffset: 0;}}@keyframes tFYSCvAn_draw_1{13.755020080321287%{stroke-dashoffset: 236}46.68674698795181%{ stroke-dashoffset: 0;}100%{ stroke-dashoffset: 0;}}@keyframes tFYSCvAn_draw_2{17.871485943775102%{stroke-dashoffset: 235}50.80321285140561%{ stroke-dashoffset: 0;}100%{ stroke-dashoffset: 0;}}@keyframes tFYSCvAn_draw_3{21.987951807228914%{stroke-dashoffset: 208}54.91967871485943%{ stroke-dashoffset: 0;}100%{ stroke-dashoffset: 0;}}@keyframes tFYSCvAn_draw_4{26.104417670682732%{stroke-dashoffset: 264}59.036144578313255%{ stroke-dashoffset: 0;}100%{ stroke-dashoffset: 0;}}</style></svg>